{
  "accessors": [
    {
      "bufferView": 0,
      "componentType": 5125,
      "count": 384,
      "type": "SCALAR"
    },
    {
      "bufferView": 1,
      "componentType": 5126,
      "count": 120,
      "max": [
        -0.14991725564958336,
        0.14316853083218611,
        0.029999999242136307
      ],
      "min": [
        -0.15026925759412346,
        0.1422408697232403,
        -0.029999999242136307
      ],
      "type": "VEC3"
    },
    {
      "bufferView": 2,
      "componentType": 5126,
      "count": 120,
      "max": [
        0.9960852523597443,
        0.7483364001411887,
        1.0
      ],
      "min": [
        -0.9214637289713726,
        -0.9999238013311569,
        -1.0
      ],
      "type": "VEC3"
    },
    {
      "bufferView": 3,
      "componentType": 5126,
      "count": 120,
      "max": [
        0.10216870504197753,
        1.0
      ],
      "min": [
        0.0,
        0.0
      ],
      "type": "VEC2"
    },
    {
      "bufferView": 4,
      "componentType": 5125,
      "count": 2220,
      "type": "SCALAR"
    },
    {
      "bufferView": 5,
      "componentType": 5126,
      "count": 630,
      "max": [
        0.3474332222167569,
        0.2016879439849416,
        0.029999999242136217
      ],
      "min": [
        0.2941732987845792,
        -0.20760741255021645,
        -0.029999999242136307
      ],
      "type": "VEC3"
    },
    {
      "bufferView": 6,
      "componentType": 5126,
      "count": 630,
      "max": [
        1.0,
        0.9999998185874059,
        1.0
      ],
      "min": [
        -0.9999999999944909,
        -0.9799529925347281,
        -1.0
      ],
      "type": "VEC3"
    },
    {
      "bufferView": 7,
      "componentType": 5126,
      "count": 630,
      "max": [
        1.0,
        0.8933675917814762
      ],
      "min": [
        0.0,
        0.0
      ],
      "type": "VEC2"
    },
    {
      "bufferView": 8,
      "componentType": 5125,
      "count": 2004,
      "type": "SCALAR"
    },
    {
      "bufferView": 9,
      "componentType": 5126,
      "count": 574,
      "max": [
        -0.21301067876441493,
        0.20174534032639474,
        0.0299999992421361
      ],
      "min": [
        -0.33836739484865014,
        -0.17099801922326674,
        -0.029999999242136307
      ],
      "type": "VEC3"
    },
    {
      "bufferView": 10,
      "componentType": 5126,
      "count": 574,
      "max": [
        1.0,
        0.9999997367852391,
        1.0
      ],
      "min": [
        -1.0,
        -0.9999999477653007,
        -1.0
      ],
      "type": "VEC3"
    },
    {
      "bufferView": 11,
      "componentType": 5126,
      "count": 574,
      "max": [
        1.0,
        0.6728696628796517
      ],
      "min": [
        0.0,
        0.0
      ],
      "type": "VEC2"
    },
    {
      "bufferView": 12,
      "componentType": 5125,
      "count": 5442,
      "type": "SCALAR"
    },
    {
      "bufferView": 13,
      "componentType": 5126,
      "count": 1529,
      "max": [
        0.5154666142688953,
        0.20781942407121307,
        0.0299999992421361
      ],
      "min": [
        0.38237807217641595,
        -0.17651698663304471,
        -0.029999999242136307
      ],
      "type": "VEC3"
    },
    {
      "bufferView": 14,
      "componentType": 5126,
      "count": 1529,
      "max": [
        1.0,
        0.9999996100910894,
        1.0
      ],
      "min": [
        -1.0,
        -0.9999999724547896,
        -1.0
      ],
      "type": "VEC3"
    },
    {
      "bufferView": 15,
      "componentType": 5126,
      "count": 1529,
      "max": [
        1.0,
        0.6895208173446733
      ],
      "min": [
        0.0,
        0.0
      ],
      "type": "VEC2"
    },
    {
      "bufferView": 16,
      "componentType": 5125,
      "count": 7782,
      "type": "SCALAR"
    },
    {
      "bufferView": 17,
      "componentType": 5126,
      "count": 2179,
      "max": [
        0.27320310553482374,
        0.2076640605782939,
        0.029999999242136203
      ],
      "min": [
        0.13294873042419653,
        -0.17644435440383188,
        -0.029999999242136307
      ],
      "type": "VEC3"
    },
    {
      "bufferView": 18,
      "componentType": 5126,
      "count": 2179,
      "max": [
        0.9999999691685847,
        0.9999942644263176,
        1.0
      ],
      "min": [
        -0.9999989806539962,
        -0.9999999853958803,
        -1.0
      ],
      "type": "VEC3"
    },
    {
      "bufferView": 19,
      "componentType": 5126,
      "count": 2179,
      "max": [
        1.0,
        0.7109816989659911
      ],
      "min": [
        0.0,
        0.0
      ],
      "type": "VEC2"
    },
    {
      "bufferView": 20,
      "componentType": 5125,
      "count": 7980,
      "type": "SCALAR"
    },
    {
      "bufferView": 21,
      "componentType": 5126,
      "count": 2232,
      "max": [
        0.10772425303975075,
        0.20733004235413588,
        0.0299999992421361
      ],
      "min": [
        -0.03313273484289975,
        -0.17651345115050623,
        -0.029999999242136307
      ],
      "type": "VEC3"
    },
    {
      "bufferView": 22,
      "componentType": 5126,
      "count": 2232,
      "max": [
        0.9999999972252775,
        0.9999997677000709,
        1.0
      ],
      "min": [
        -0.9999999788106988,
        -0.9999991263359248,
        -1.0
      ],
      "type": "VEC3"
    },
    {
      "bufferView": 23,
      "componentType": 5126,
      "count": 2232,
      "max": [
        1.0,
        0.7104534341497484
      ],
      "min": [
        0.0,
        0.0
      ],
      "type": "VEC2"
    },
    {
      "bufferView": 24,
      "componentType": 5125,
      "count": 6756,
      "type": "SCALAR"
    },
    {
      "bufferView": 25,
      "componentType": 5126,
      "count": 1898,
      "max": [
        -0.3750434560368754,
        0.2075996681732003,
        0.029999999242136203
      ],
      "min": [
        -0.5154666142688952,
        -0.20781942407121304,
        -0.029999999242136307
      ],
      "type": "VEC3"
    },
    {
      "bufferView": 26,
      "componentType": 5126,
      "count": 1898,
      "max": [
        1.0,
        0.9999998142519881,
        1.0
      ],
      "min": [
        -0.9999999965892701,
        -0.9999998067687861,
        -1.0
      ],
      "type": "VEC3"
    },
    {
      "bufferView": 27,
      "componentType": 5126,
      "count": 1898,
      "max": [
        1.0,
        0.5576818120350242
      ],
      "min": [
        0.0,
        0.0
      ],
      "type": "VEC2"
    },
    {
      "bufferView": 28,
      "componentType": 5125,
      "count": 7410,
      "type": "SCALAR"
    },
    {
      "bufferView": 29,
      "componentType": 5126,
      "count": 2093,
      "max": [
        -0.025827699130407,
        0.20310356956623515,
        0.0299999992421361
      ],
      "min": [
        -0.2681724538793636,
        -0.20435946335381022,
        -0.029999999242136307
      ],
      "type": "VEC3"
    },
    {
      "bufferView": 30,
      "componentType": 5126,
      "count": 2093,
      "max": [
        0.9999999347990105,
        0.9999999825191949,
        1.0
      ],
      "min": [
        -0.9999999912400689,
        -0.9999968469899821,
        -1.0
      ],
      "type": "VEC3"
    },
    {
      "bufferView": 31,
      "componentType": 5126,
      "count": 2093,
      "max": [
        0.9915756109248877,
        1.0
      ],
      "min": [
        0.0,
        0.0
      ],
      "type": "VEC2"
    }
  ],
  "asset": {
    "generator": "Adobe Illustrator",
    "version": "2.0"
  },
  "bufferViews": [
    {
      "buffer": 0,
      "byteLength": 1536,
      "target": 34963
    },
    {
      "buffer": 0,
      "byteLength": 1440,
      "byteOffset": 1536,
      "target": 34962
    },
    {
      "buffer": 0,
      "byteLength": 1440,
      "byteOffset": 2976,
      "target": 34962
    },
    {
      "buffer": 0,
      "byteLength": 960,
      "byteOffset": 4416,
      "target": 34962
    },
    {
      "buffer": 0,
      "byteLength": 8880,
      "byteOffset": 5376,
      "target": 34963
    },
    {
      "buffer": 0,
      "byteLength": 7560,
      "byteOffset": 14256,
      "target": 34962
    },
    {
      "buffer": 0,
      "byteLength": 7560,
      "byteOffset": 21816,
      "target": 34962
    },
    {
      "buffer": 0,
      "byteLength": 5040,
      "byteOffset": 29376,
      "target": 34962
    },
    {
      "buffer": 0,
      "byteLength": 8016,
      "byteOffset": 34416,
      "target": 34963
    },
    {
      "buffer": 0,
      "byteLength": 6888,
      "byteOffset": 42432,
      "target": 34962
    },
    {
      "buffer": 0,
      "byteLength": 6888,
      "byteOffset": 49320,
      "target": 34962
    },
    {
      "buffer": 0,
      "byteLength": 4592,
      "byteOffset": 56208,
      "target": 34962
    },
    {
      "buffer": 0,
      "byteLength": 21768,
      "byteOffset": 60800,
      "target": 34963
    },
    {
      "buffer": 0,
      "byteLength": 18348,
      "byteOffset": 82568,
      "target": 34962
    },
    {
      "buffer": 0,
      "byteLength": 18348,
      "byteOffset": 100916,
      "target": 34962
    },
    {
      "buffer": 0,
      "byteLength": 12232,
      "byteOffset": 119264,
      "target": 34962
    },
    {
      "buffer": 0,
      "byteLength": 31128,
      "byteOffset": 131496,
      "target": 34963
    },
    {
      "buffer": 0,
      "byteLength": 26148,
      "byteOffset": 162624,
      "target": 34962
    },
    {
      "buffer": 0,
      "byteLength": 26148,
      "byteOffset": 188772,
      "target": 34962
    },
    {
      "buffer": 0,
      "byteLength": 17432,
      "byteOffset": 214920,
      "target": 34962
    },
    {
      "buffer": 0,
      "byteLength": 31920,
      "byteOffset": 232352,
      "target": 34963
    },
    {
      "buffer": 0,
      "byteLength": 26784,
      "byteOffset": 264272,
      "target": 34962
    },
    {
      "buffer": 0,
      "byteLength": 26784,
      "byteOffset": 291056,
      "target": 34962
    },
    {
      "buffer": 0,
      "byteLength": 17856,
      "byteOffset": 317840,
      "target": 34962
    },
    {
      "buffer": 0,
      "byteLength": 27024,
      "byteOffset": 335696,
      "target": 34963
    },
    {
      "buffer": 0,
      "byteLength": 22776,
      "byteOffset": 362720,
      "target": 34962
    },
    {
      "buffer": 0,
      "byteLength": 22776,
      "byteOffset": 385496,
      "target": 34962
    },
    {
      "buffer": 0,
      "byteLength": 15184,
      "byteOffset": 408272,
      "target": 34962
    },
    {
      "buffer": 0,
      "byteLength": 29640,
      "byteOffset": 423456,
      "target": 34963
    },
    {
      "buffer": 0,
      "byteLength": 25116,
      "byteOffset": 453096,
      "target": 34962
    },
    {
      "buffer": 0,
      "byteLength": 25116,
      "byteOffset": 478212,
      "target": 34962
    },
    {
      "buffer": 0,
      "byteLength": 16744,
      "byteOffset": 503328,
      "target": 34962
    }
  ],
  "buffers": [
    {
      "byteLength": 520072,
      "uri": "data:application/octet-stream;base64,"
    }
  ],
  "materials": [
    {
      "doubleSided": true,
      "pbrMetallicRoughness": {
        "baseColorFactor": [
          0.0,
          0.0,
          0.0,
          1.0
        ],
        "metallicFactor": 0.0,
        "roughnessFactor": 0.4000000059604645
      }
    },
    {
      "doubleSided": true,
      "pbrMetallicRoughness": {
        "baseColorFactor": [
          0.0,
          0.0,
          0.0,
          1.0
        ],
        "metallicFactor": 0.0,
        "roughnessFactor": 0.4000000059604645
      }
    },
    {
      "doubleSided": true,
      "pbrMetallicRoughness": {
        "baseColorFactor": [
          0.0,
          0.0,
          0.0,
          1.0
        ],
        "metallicFactor": 0.0,
        "roughnessFactor": 0.4000000059604645
      }
    },
    {
      "doubleSided": true,
      "pbrMetallicRoughness": {
        "baseColorFactor": [
          0.0,
          0.0,
          0.0,
          1.0
        ],
        "metallicFactor": 0.0,
        "roughnessFactor": 0.4000000059604645
      }
    },
    {
      "doubleSided": true,
      "pbrMetallicRoughness": {
        "baseColorFactor": [
          0.0,
          0.0,
          0.0,
          1.0
        ],
        "metallicFactor": 0.0,
        "roughnessFactor": 0.4000000059604645
      }
    },
    {
      "doubleSided": true,
      "pbrMetallicRoughness": {
        "baseColorFactor": [
          0.0,
          0.0,
          0.0,
          1.0
        ],
        "metallicFactor": 0.0,
        "roughnessFactor": 0.4000000059604645
      }
    },
    {
      "doubleSided": true,
      "pbrMetallicRoughness": {
        "baseColorFactor": [
          0.0,
          0.0,
          0.0,
          1.0
        ],
        "metallicFactor": 0.0,
        "roughnessFactor": 0.4000000059604645
      }
    },
    {
      "doubleSided": true,
      "pbrMetallicRoughness": {
        "baseColorFactor": [
          0.0,
          0.0,
          0.0,
          1.0
        ],
        "metallicFactor": 0.0,
        "roughnessFactor": 0.4000000059604645
      }
    }
  ],
  "meshes": [
    {
      "primitives": [
        {
          "attributes": {
            "NORMAL": 2,
            "POSITION": 1,
            "TEXCOORD_0": 3
          },
          "indices": 0,
          "material": 0,
          "mode": 4
        }
      ]
    },
    {
      "primitives": [
        {
          "attributes": {
            "NORMAL": 6,
            "POSITION": 5,
            "TEXCOORD_0": 7
          },
          "indices": 4,
          "material": 1,
          "mode": 4
        }
      ]
    },
    {
      "primitives": [
        {
          "attributes": {
            "NORMAL": 10,
            "POSITION": 9,
            "TEXCOORD_0": 11
          },
          "indices": 8,
          "material": 2,
          "mode": 4
        }
      ]
    },
    {
      "primitives": [
        {
          "attributes": {
            "NORMAL": 14,
            "POSITION": 13,
            "TEXCOORD_0": 15
          },
          "indices": 12,
          "material": 3,
          "mode": 4
        }
      ]
    },
    {
      "primitives": [
        {
          "attributes": {
            "NORMAL": 18,
            "POSITION": 17,
            "TEXCOORD_0": 19
          },
          "indices": 16,
          "material": 4,
          "mode": 4
        }
      ]
    },
    {
      "primitives": [
        {
          "attributes": {
            "NORMAL": 22,
            "POSITION": 21,
            "TEXCOORD_0": 23
          },
          "indices": 20,
          "material": 5,
          "mode": 4
        }
      ]
    },
    {
      "primitives": [
        {
          "attributes": {
            "NORMAL": 26,
            "POSITION": 25,
            "TEXCOORD_0": 27
          },
          "indices": 24,
          "material": 6,
          "mode": 4
        }
      ]
    },
    {
      "primitives": [
        {
          "attributes": {
            "NORMAL": 30,
            "POSITION": 29,
            "TEXCOORD_0": 31
          },
          "indices": 28,
          "material": 7,
          "mode": 4
        }
      ]
    }
  ],
  "nodes": [
    {
      "mesh": 0
    },
    {
      "mesh": 1
    },
    {
      "mesh": 2
    },
    {
      "mesh": 3
    },
    {
      "mesh": 4
    },
    {
      "mesh": 5
    },
    {
      "mesh": 6
    },
    {
      "mesh": 7
    }
  ],
  "scenes": [
    {
      "nodes": [
        0,
        1,
        2,
        3,
        4,
        5,
        6,
        7
      ]
    }
  ]
}
